# xmcd
#
# Track frame offsets:
#	150
#	28617
#	48485
#	64458
#	82480
#	102900
#	123890
#	144614
#	159004
#	177061
#	196566
#	209040
#
# Disc length: 3148 seconds
#
# Revision: 1
# Processed by: cddbd v1.5.2PL0 Copyright (c) Steve Scherf et al.
# Submitted via: EasyCDDAExtractor 10.0.5.1
#
DISCID=a70c4a0c
DTITLE=Kanye West - 808s and Heartbreak
DYEAR=2008
DGENRE=R&B
TTITLE0=Say You Will
TTITLE1=Welcome To Heartbreak
TTITLE2=Heartless
TTITLE3=Amazing
TTITLE4=Love Lockdown
TTITLE5=Paranoid
TTITLE6=RoboCop
TTITLE7=Street Lights
TTITLE8=Bad News
TTITLE9=See You In My Nightmares
TTITLE10=Coldest Winter
TTITLE11=Pinocchio Story (Freestyle Live From Singapore)
EXTD=
EXTT0=
EXTT1=
EXTT2=
EXTT3=
EXTT4=
EXTT5=
EXTT6=
EXTT7=
EXTT8=
EXTT9=
EXTT10=
EXTT11=
PLAYORDER=
